<?xml version="1.0" standalone="no"?>
<!DOCTYPE svg PUBLIC "-//W3C//DTD SVG 20010904//EN"
 "http://www.w3.org/TR/2001/REC-SVG-20010904/DTD/svg10.dtd">
<svg version="1.0" xmlns="http://www.w3.org/2000/svg"
 width="500.000000pt" height="500.000000pt" viewBox="0 0 500.000000 500.000000"
 preserveAspectRatio="xMidYMid meet">

<g transform="translate(0.000000,500.000000) scale(0.100000,-0.100000)"
fill="#000000" stroke="none">
<path d="M3760 4534 c-250 -36 -369 -71 -538 -159 -203 -105 -364 -269 -452
-459 -41 -89 -127 -329 -162 -453 l-23 -80 -125 5 c-202 7 -378 -34 -582 -135
-93 -45 -233 -130 -275 -167 -7 -6 -30 -24 -52 -41 -61 -46 -60 -55 9 -55 l60
0 66 69 c64 67 184 151 216 151 9 0 94 -29 189 -66 187 -70 303 -104 356 -104
29 0 33 -3 33 -25 l0 -25 129 0 129 0 19 33 c10 17 31 64 47 102 16 39 35 84
42 100 31 69 110 272 170 435 36 96 69 184 74 195 118 275 183 389 275 480 63
64 128 102 187 112 29 4 60 -7 184 -67 328 -159 478 -199 567 -154 81 42 147
119 147 172 0 74 -264 144 -536 141 -71 -1 -140 -3 -154 -5z"/>
<path d="M2746 2865 c-14 -13 -26 -34 -26 -45 0 -13 -8 -24 -20 -27 -11 -3
-20 -14 -20 -24 0 -12 7 -19 20 -19 18 0 20 -7 20 -80 0 -73 2 -80 20 -80 18
0 20 7 20 79 l0 80 32 3 c22 2 34 9 36 21 3 14 -4 17 -32 17 -29 0 -36 4 -36
20 0 26 34 44 59 30 31 -16 51 -13 44 8 -18 46 -76 55 -117 17z"/>
<path d="M4040 2735 c0 -138 1 -145 20 -145 11 0 20 5 20 12 0 9 3 9 12 0 21
-21 83 -14 111 12 47 43 44 141 -4 166 -23 13 -65 13 -90 0 -18 -10 -19 -7
-19 45 0 52 -1 55 -25 55 l-25 0 0 -145z m144 -18 c14 -39 -10 -81 -48 -85
-33 -4 -46 10 -46 52 0 65 74 90 94 33z"/>
<path d="M440 2730 l0 -140 69 0 c125 0 181 45 181 146 0 92 -56 134 -180 134
l-70 0 0 -140z m176 69 c33 -31 34 -97 0 -135 -19 -23 -32 -28 -72 -28 l-49
-1 -3 84 c-2 46 0 91 3 99 8 22 90 10 121 -19z"/>
<path d="M1656 2850 c-82 -54 -87 -178 -10 -239 40 -32 129 -29 169 4 29 24
29 25 11 40 -17 13 -21 12 -44 -5 -94 -75 -192 69 -106 155 29 29 84 34 108
10 18 -19 30 -19 45 -1 9 11 6 18 -15 35 -36 28 -117 29 -158 1z"/>
<path d="M3310 2730 l0 -140 85 0 c78 0 85 2 85 20 0 18 -7 20 -60 20 l-60 0
0 120 0 120 -25 0 -25 0 0 -140z"/>
<path d="M3010 2810 c0 -13 -7 -20 -20 -20 -13 0 -20 -7 -20 -20 0 -13 7 -20
20 -20 18 0 20 -7 20 -63 0 -77 16 -97 78 -97 35 0 42 3 42 20 0 16 -7 20 -34
20 -39 0 -46 11 -46 76 0 44 0 44 35 44 28 0 35 4 35 20 0 16 -7 20 -31 20
-22 0 -32 5 -36 20 -3 11 -14 20 -24 20 -12 0 -19 -7 -19 -20z"/>
<path d="M911 2771 c-46 -40 -48 -126 -3 -161 30 -24 113 -28 132 -5 19 23 4
32 -49 27 -42 -4 -51 -2 -60 17 -11 20 -10 21 60 21 l72 0 -6 42 c-4 27 -14
49 -27 60 -29 24 -91 23 -119 -1z m93 -27 c27 -26 18 -34 -34 -34 -47 0 -50 1
-40 19 17 33 50 39 74 15z"/>
<path d="M1230 2782 c0 -11 38 -140 50 -169 7 -18 18 -23 44 -23 27 0 36 5 44
28 19 47 62 164 62 168 0 2 -11 4 -24 4 -20 0 -26 -10 -46 -67 -25 -77 -36
-93 -43 -67 -3 11 -13 45 -22 77 -14 49 -20 57 -41 57 -13 0 -24 -4 -24 -8z"/>
<path d="M2010 2690 c0 -98 0 -100 24 -100 21 0 24 5 30 63 6 62 28 97 61 97
11 0 25 20 25 36 0 13 -53 1 -70 -16 l-20 -20 0 20 c0 15 -7 20 -25 20 l-25 0
0 -100z"/>
<path d="M2345 2766 c-63 -63 -34 -180 44 -178 17 0 39 6 50 12 14 7 21 7 21
0 0 -5 11 -10 25 -10 l25 0 0 100 c0 93 -1 100 -20 100 -11 0 -20 -5 -20 -12
0 -9 -3 -9 -12 0 -21 21 -86 14 -113 -12z m103 -28 c31 -31 0 -108 -43 -108
-43 0 -57 67 -23 107 13 16 50 17 66 1z"/>
<path d="M3692 2774 c-27 -19 -52 -65 -52 -96 0 -13 9 -38 20 -55 17 -29 25
-33 63 -33 24 0 48 5 55 12 9 9 12 9 12 0 0 -7 11 -12 25 -12 l25 0 0 100 c0
80 -3 100 -14 100 -8 0 -16 -6 -19 -12 -4 -10 -7 -10 -18 0 -18 17 -70 15 -97
-4z m86 -36 c16 -16 15 -69 -2 -90 -20 -27 -64 -23 -78 7 -16 36 12 95 45 95
13 0 28 -5 35 -12z"/>
<path d="M4439 2769 c-42 -42 -13 -88 64 -104 20 -4 27 -11 25 -23 -4 -22 -51
-28 -68 -8 -15 20 -50 21 -50 3 0 -46 111 -66 150 -27 11 11 20 26 20 33 0 26
-30 55 -64 61 -44 8 -64 31 -39 44 19 10 44 5 54 -11 8 -12 39 -2 39 12 0 41
-95 56 -131 20z"/>
<path d="M1082 2478 c-22 -28 -95 -214 -118 -306 -34 -129 -38 -291 -10 -372
56 -161 178 -265 342 -290 121 -19 253 14 439 107 116 58 331 202 402 270 7 6
25 21 40 33 23 18 25 22 12 35 -13 13 -26 7 -104 -51 -162 -119 -265 -158
-420 -157 -87 0 -107 3 -155 26 -98 46 -148 108 -176 217 -20 77 -14 274 11
380 8 36 18 77 21 93 l7 27 -141 0 c-99 0 -142 -4 -150 -12z"/>
<path d="M2194 2414 l-71 -74 -104 3 -104 2 -85 -67 c-106 -82 -170 -144 -170
-163 0 -8 10 -17 23 -19 40 -8 1067 -36 1307 -36 252 1 357 13 426 48 41 22
138 117 195 192 18 25 36 47 39 50 3 3 25 29 48 59 52 66 43 91 -15 45 -60
-48 -122 -81 -203 -106 -75 -23 -78 -23 -545 -21 -258 2 -530 6 -604 10 l-135
8 87 63 c47 34 89 67 92 72 4 6 -17 10 -52 9 l-58 -1 -71 -74z"/>
</g>
</svg>
