<?xml version="1.0" standalone="no"?>
<!DOCTYPE svg PUBLIC "-//W3C//DTD SVG 20010904//EN"
 "http://www.w3.org/TR/2001/REC-SVG-20010904/DTD/svg10.dtd">
<svg version="1.0" xmlns="http://www.w3.org/2000/svg"
 width="512.000000pt" height="512.000000pt" viewBox="0 0 512.000000 512.000000"
 preserveAspectRatio="xMidYMid meet">

<g transform="translate(0.000000,512.000000) scale(0.100000,-0.100000)"
fill="#000000" stroke="none">
<path d="M2306 5028 c-239 -27 -656 -158 -733 -231 -39 -36 -30 -68 69 -241
97 -169 133 -216 166 -216 11 0 71 21 134 46 137 55 272 90 421 110 160 21
151 5 155 269 l3 215 -30 30 c-33 33 -44 34 -185 18z m54 -262 c0 -117 6 -109
-85 -121 -72 -9 -230 -50 -328 -85 -47 -16 -90 -30 -95 -30 -6 0 -33 39 -61
88 l-50 87 24 13 c110 57 446 148 563 151 l32 1 0 -104z"/>
<path d="M2659 5010 l-30 -30 3 -215 c4 -259 -1 -250 128 -265 396 -49 718
-206 1000 -489 151 -151 247 -283 330 -456 115 -237 177 -521 168 -769 l-3
-89 -59 -12 c-88 -18 -130 -76 -110 -151 9 -35 327 -448 377 -490 40 -33 105
-33 145 1 25 21 317 385 365 455 39 57 5 154 -63 177 -19 7 -54 12 -76 12
l-41 1 -6 203 c-4 161 -10 229 -31 337 -91 470 -301 861 -642 1191 -354 342
-803 554 -1289 609 -127 14 -133 13 -166 -20z m346 -171 c654 -135 1226 -616
1478 -1244 112 -278 150 -493 146 -823 -3 -240 -5 -234 98 -242 l66 -5 -127
-160 c-69 -88 -128 -159 -132 -158 -3 1 -62 73 -130 160 -121 153 -124 158
-97 161 93 9 101 25 109 214 14 312 -48 612 -186 893 -217 444 -606 785 -1070
939 -88 29 -165 47 -347 82 -22 4 -23 8 -23 111 l0 106 57 -7 c32 -4 103 -16
158 -27z"/>
<path d="M1249 4603 c-133 -98 -354 -319 -452 -452 -64 -85 -77 -110 -77 -141
0 -23 7 -43 18 -52 19 -17 338 -202 364 -211 36 -13 73 14 128 90 71 99 223
252 330 334 119 91 119 90 -6 306 -53 93 -103 176 -112 186 -9 10 -29 17 -52
17 -31 0 -56 -13 -141 -77z m170 -210 l51 -88 -38 -29 c-48 -38 -257 -248
-302 -303 l-35 -43 -87 51 c-49 28 -88 55 -88 61 0 17 107 146 195 234 90 91
224 204 242 204 6 0 34 -39 62 -87z"/>
<path d="M2530 4134 c-201 -53 -367 -224 -415 -427 -46 -194 9 -390 150 -534
l70 -71 -75 -31 c-151 -62 -307 -180 -415 -313 -155 -193 -274 -549 -205 -618
20 -20 33 -20 1034 -20 984 0 1014 1 1037 19 31 25 30 82 -1 206 -60 240 -197
449 -391 594 -74 57 -226 140 -278 154 -23 6 -22 9 45 79 116 123 164 240 165
399 0 167 -50 288 -171 410 -82 83 -177 137 -278 158 -73 15 -206 13 -272 -5z
m322 -181 c88 -41 160 -113 201 -201 30 -63 32 -74 32 -177 0 -103 -2 -114
-32 -177 -41 -88 -113 -160 -201 -201 -63 -30 -74 -32 -177 -32 -97 0 -116 3
-165 26 -353 167 -324 664 45 786 25 8 76 12 135 10 83 -2 104 -7 162 -34z
m37 -984 c100 -23 229 -82 315 -143 82 -59 202 -187 249 -267 39 -66 90 -189
102 -246 l7 -33 -886 0 c-487 0 -886 2 -886 4 0 2 9 35 21 72 105 342 401 589
759 634 88 11 217 3 319 -21z"/>
<path d="M603 3828 c-24 -26 -98 -195 -136 -313 -43 -129 -76 -280 -94 -426
-15 -130 -15 -139 1 -164 28 -42 55 -46 273 -43 250 4 239 -3 259 150 17 132
52 267 99 388 20 52 42 111 47 131 22 70 14 78 -185 193 -196 114 -227 124
-264 84z m240 -255 c29 -18 37 -28 31 -41 -31 -72 -86 -257 -104 -352 -12 -63
-24 -121 -26 -127 -2 -9 -33 -13 -109 -13 -122 0 -113 -13 -89 131 23 137 59
269 105 386 l41 103 56 -32 c32 -17 74 -42 95 -55z"/>
<path d="M390 2741 c-35 -34 -35 -40 -15 -198 27 -207 86 -420 170 -613 43
-101 67 -130 108 -130 31 0 339 171 385 213 31 29 28 54 -24 183 -55 138 -89
270 -109 417 -20 160 -6 151 -270 155 l-215 3 -30 -30z m370 -236 c20 -116 51
-229 90 -333 l28 -73 -21 -13 c-12 -7 -53 -32 -92 -55 l-70 -41 -16 33 c-50
96 -126 377 -144 530 l-7 58 107 -3 108 -3 17 -100z"/>
<path d="M1560 1963 c-87 -23 -194 -78 -510 -261 l-295 -171 -19 32 c-54 91
-67 106 -111 127 -79 38 -135 27 -285 -58 -177 -101 -210 -138 -210 -236 0
-55 -2 -52 383 -731 327 -578 322 -571 428 -582 49 -5 61 -1 129 34 171 88
241 136 268 182 46 78 36 144 -39 267 l-18 30 55 32 c31 18 62 32 69 32 8 0
240 -61 517 -137 l503 -136 115 -1 c200 -2 105 -50 1135 583 645 396 667 412
699 516 27 84 19 194 -19 264 -96 176 -319 205 -580 74 -38 -20 -250 -140
-470 -269 -221 -128 -417 -240 -437 -248 l-36 -15 14 46 c31 104 9 203 -63
283 -60 67 -92 82 -264 124 -153 37 -239 64 -544 170 -178 62 -194 66 -275 65
-47 0 -110 -7 -140 -16z m335 -189 c293 -103 427 -146 565 -180 168 -42 194
-54 220 -97 36 -59 17 -153 -37 -180 -70 -36 -98 -32 -419 57 -110 31 -210 56
-223 56 -29 0 -71 -43 -71 -74 0 -60 16 -70 175 -114 503 -141 648 -156 814
-88 31 12 247 134 481 271 234 136 454 260 490 276 205 87 340 43 340 -111 0
-28 -7 -64 -15 -79 -20 -39 -1439 -915 -1535 -948 -90 -31 -170 -29 -305 6
-60 16 -304 81 -542 145 -238 64 -440 116 -449 116 -9 0 -53 -21 -97 -46 -43
-25 -83 -42 -87 -37 -13 14 -360 631 -360 640 0 8 475 287 610 357 174 92 254
97 445 30z m-1009 -802 c234 -412 322 -577 316 -588 -12 -21 -232 -145 -251
-142 -20 4 -662 1136 -659 1161 4 23 215 146 247 144 20 -2 70 -84 347 -575z"/>
<path d="M454 1387 c-53 -46 -22 -130 47 -130 33 0 79 39 79 68 0 27 -23 63
-47 74 -35 16 -49 14 -79 -12z"/>
</g>
</svg>
