<?xml version="1.0" standalone="no"?>
<!DOCTYPE svg PUBLIC "-//W3C//DTD SVG 20010904//EN"
 "http://www.w3.org/TR/2001/REC-SVG-20010904/DTD/svg10.dtd">
<svg version="1.0" xmlns="http://www.w3.org/2000/svg"
 width="512.000000pt" height="512.000000pt" viewBox="0 0 512.000000 512.000000"
 preserveAspectRatio="xMidYMid meet">

<g transform="translate(0.000000,512.000000) scale(0.100000,-0.100000)"
fill="#000000" stroke="none">
<path d="M2405 4953 c-239 -21 -523 -123 -727 -260 -365 -245 -603 -602 -690
-1035 -32 -162 -32 -434 0 -596 72 -358 262 -689 518 -902 128 -107 192 -170
230 -227 42 -63 81 -155 90 -211 l6 -39 -53 -13 c-41 -10 -64 -24 -105 -64
-71 -70 -90 -144 -62 -240 23 -78 135 -166 212 -166 13 0 16 -13 16 -80 l0
-80 -55 0 c-67 0 -105 -29 -105 -80 0 -51 38 -80 105 -80 l55 0 0 -58 c0 -87
23 -144 80 -195 55 -49 103 -67 184 -67 56 0 56 0 56 -30 0 -44 37 -147 70
-195 41 -60 94 -103 170 -139 59 -28 74 -31 161 -31 90 0 99 2 171 38 121 60
195 157 219 291 l12 66 61 0 c147 1 244 95 254 248 l5 72 49 0 c61 0 82 11 98
50 10 24 10 36 0 60 -16 40 -37 50 -99 50 l-51 0 0 80 c0 76 1 80 23 80 32 1
107 37 140 68 49 46 71 100 71 172 0 118 -74 209 -191 235 -23 4 -33 12 -33
25 0 37 40 147 75 205 44 72 83 115 195 209 373 313 572 704 597 1176 22 433
-153 883 -468 1199 -340 341 -800 507 -1284 464z m447 -183 c843 -179 1341
-1044 1073 -1865 -83 -252 -235 -470 -462 -661 -64 -55 -140 -128 -170 -163
-66 -81 -127 -204 -149 -301 -9 -41 -18 -81 -20 -87 -3 -10 -125 -13 -569 -13
l-565 0 0 31 c0 17 -14 72 -30 122 -54 160 -136 272 -289 396 -273 222 -450
505 -522 841 -31 140 -33 429 -6 560 95 450 375 818 773 1018 139 70 300 119
464 142 106 15 361 4 472 -20z m483 -3275 c33 -32 33 -78 0 -110 l-24 -25
-751 0 -751 0 -24 25 c-16 15 -25 36 -25 55 0 19 9 40 25 55 l24 25 751 0 751
0 24 -25z m-215 -375 l0 -80 -560 0 -560 0 0 80 0 80 560 0 560 0 0 -80z m0
-295 c0 -46 -4 -60 -25 -80 l-24 -25 -511 0 -511 0 -24 25 c-21 20 -25 34 -25
80 l0 55 560 0 560 0 0 -55z m-320 -281 c0 -108 -125 -224 -240 -224 -115 0
-240 116 -240 224 0 14 25 16 240 16 215 0 240 -2 240 -16z"/>
<path d="M2343 4480 c-32 -13 -48 -45 -73 -146 l-22 -92 -44 -17 -45 -17 -84
50 c-82 49 -99 56 -139 53 -22 -1 -290 -262 -312 -303 -22 -42 -18 -56 40
-152 53 -89 53 -90 39 -125 -21 -52 -28 -56 -131 -81 -136 -33 -132 -24 -132
-285 0 -262 -6 -249 140 -285 l103 -25 17 -46 18 -45 -54 -89 c-30 -50 -54
-101 -54 -114 0 -18 41 -66 157 -183 185 -186 176 -183 301 -108 46 28 86 50
90 50 3 0 25 -7 48 -16 l43 -16 23 -96 c36 -151 18 -142 288 -142 270 0 252
-9 288 143 23 95 24 96 63 111 22 9 44 16 49 16 5 0 46 -22 92 -50 125 -75
116 -78 301 108 115 116 157 165 157 182 0 13 -25 66 -55 116 l-55 92 20 44
19 44 97 23 c150 36 144 25 144 284 0 256 1 254 -107 281 -146 36 -137 32
-155 80 l-16 44 54 88 c58 96 61 111 40 152 -21 40 -277 289 -310 302 -32 12
-38 9 -153 -59 l-72 -43 -45 17 -45 17 -23 96 c-14 58 -32 107 -45 122 l-21
25 -209 2 c-114 1 -218 -2 -230 -7z m367 -247 c14 -51 32 -99 40 -107 20 -19
192 -86 220 -86 12 0 56 20 97 45 40 25 77 45 81 45 4 0 46 -39 94 -87 l87
-88 -50 -80 c-38 -61 -48 -87 -45 -110 5 -39 70 -193 89 -212 8 -8 54 -25 103
-37 l89 -22 3 -126 3 -126 -53 -15 c-29 -9 -72 -20 -94 -26 -52 -14 -59 -22
-102 -124 -51 -122 -51 -129 7 -222 l50 -80 -89 -89 -89 -89 -83 48 c-46 27
-94 48 -109 47 -15 0 -49 -12 -75 -25 -27 -13 -65 -30 -85 -36 -52 -17 -64
-35 -91 -136 l-23 -90 -125 0 -125 0 -13 45 c-41 141 -47 155 -72 167 -67 33
-176 76 -197 76 -12 0 -59 -22 -103 -48 l-82 -48 -90 90 -89 89 52 88 c48 80
51 89 41 119 -21 65 -73 182 -86 196 -8 7 -54 23 -102 36 l-89 23 0 128 0 127
90 24 c50 13 95 29 101 36 14 15 94 202 94 219 0 7 -22 51 -50 98 l-49 85 87
88 c47 48 90 87 94 87 4 0 41 -21 83 -46 61 -37 82 -45 108 -41 46 7 200 73
213 92 7 9 22 57 34 106 l22 90 127 -3 126 -3 25 -92z"/>
<path d="M2900 3683 c-8 -3 -115 -105 -237 -226 l-223 -222 -104 104 c-90 89
-109 104 -137 104 -23 0 -39 -8 -56 -27 -44 -51 -36 -67 119 -223 130 -131
145 -143 178 -143 33 0 53 17 298 263 227 228 262 267 262 293 0 46 -59 91
-100 77z"/>
<path d="M605 4745 c-27 -26 -33 -71 -12 -98 24 -32 371 -267 395 -267 28 0
82 51 82 77 -1 39 -32 67 -205 188 -194 136 -216 144 -260 100z"/>
<path d="M4253 4642 c-215 -150 -233 -174 -174 -233 16 -16 40 -29 54 -29 24
0 355 222 390 262 25 29 22 74 -8 103 -43 44 -65 35 -262 -103z"/>
<path d="M185 3415 c-16 -15 -25 -36 -25 -55 0 -19 9 -40 25 -55 l24 -25 231
0 231 0 24 25 c33 32 33 78 0 110 l-24 25 -231 0 -231 0 -24 -25z"/>
<path d="M4425 3415 c-16 -15 -25 -36 -25 -55 0 -19 9 -40 25 -55 l24 -25 231
0 231 0 24 25 c16 15 25 36 25 55 0 19 -9 40 -25 55 l-24 25 -231 0 -231 0
-24 -25z"/>
<path d="M960 2333 c-25 -10 -344 -234 -362 -255 -41 -46 -2 -128 60 -128 35
0 380 237 400 275 31 60 -35 132 -98 108z"/>
<path d="M4079 2311 c-59 -60 -42 -83 176 -235 127 -89 188 -126 208 -126 57
0 98 78 65 123 -25 32 -372 267 -396 267 -13 0 -37 -13 -53 -29z"/>
</g>
</svg>
